<svg width="128" height="36" viewBox="0 0 128 36" fill="none" xmlns="http://www.w3.org/2000/svg">
<path d="M118.623 24.7863H116.128V11.8071H118.384L118.649 13.7978C119.472 12.3114 121.118 11.4355 122.949 11.4355C126.373 11.4355 127.939 13.5324 127.939 16.8502V24.7863H125.444V17.4075C125.444 14.7799 124.223 13.7182 122.312 13.7182C119.976 13.7182 118.623 15.3903 118.623 17.9118V24.7863Z" fill="white"/>
<path d="M108.01 25.1048C104.188 25.1048 101.561 22.3444 101.561 18.31C101.561 14.249 104.135 11.4355 107.904 11.4355C111.593 11.4355 114.009 13.9836 114.009 17.8322V18.7612L103.976 18.7877C104.162 21.5216 105.595 23.0345 108.063 23.0345C110.001 23.0345 111.275 22.2382 111.7 20.7519H114.035C113.398 23.5388 111.222 25.1048 108.01 25.1048ZM107.904 13.5324C105.728 13.5324 104.347 14.8329 104.029 17.1156H111.514C111.514 14.9657 110.107 13.5324 107.904 13.5324Z" fill="white"/>
<path d="M92.357 25.1057C88.588 25.1057 86.3054 22.2923 86.3054 18.3375C86.3054 14.3562 88.6146 11.4365 92.4632 11.4365C94.4539 11.4365 96.126 12.3124 97.0019 13.9049V5.2522H99.4703V24.7872H97.2408L97.0285 22.425C96.1791 24.2033 94.4273 25.1057 92.357 25.1057ZM92.8613 22.8497C95.4094 22.8497 96.9754 20.9652 96.9754 18.2579C96.9754 15.6036 95.4094 13.6926 92.8613 13.6926C90.3133 13.6926 88.8269 15.6036 88.8269 18.2579C88.8269 20.9386 90.3133 22.8497 92.8613 22.8497Z" fill="white"/>
<path d="M85.9466 11.7012V13.9839H84.8318C82.4696 13.9839 81.0097 15.4172 81.0097 17.9121V24.7865H78.5148V11.834H80.8505L81.0097 13.7981C81.5406 12.4444 82.8411 11.542 84.6195 11.542C85.0707 11.542 85.4423 11.5951 85.9466 11.7012Z" fill="white"/>
<path d="M68.7942 25.1048C66.0073 25.1048 64.3617 23.5388 64.3617 21.1765C64.3617 18.7877 66.14 17.3014 69.1924 17.0625L73.2799 16.744V16.3724C73.2799 14.1959 71.9793 13.4262 70.2275 13.4262C68.1307 13.4262 66.9363 14.3552 66.9363 15.9212H64.7598C64.7598 13.2139 66.9894 11.4355 70.3337 11.4355C73.5453 11.4355 75.7217 13.1342 75.7217 16.6378V24.7863H73.5984L73.3329 22.6894C72.6694 24.1758 70.8911 25.1048 68.7942 25.1048ZM69.5109 23.1672C71.8731 23.1672 73.3064 21.6277 73.3064 19.1859V18.4958L69.9886 18.7612C67.7856 18.9735 66.8832 19.8229 66.8832 21.0969C66.8832 22.4771 67.8918 23.1672 69.5109 23.1672Z" fill="white"/>
<path d="M48.9774 17.9649C48.9774 14.3021 51.3397 11.4355 55.1087 11.4355C57.2055 11.4355 58.8246 12.3911 59.6474 14.0101L59.8332 11.8071H62.0627V24.2554C62.0627 28.3429 59.5412 30.944 55.5599 30.944C52.0298 30.944 49.6144 28.9534 49.1367 25.6622H51.6316C51.9501 27.5732 53.3834 28.688 55.5599 28.688C58.0018 28.688 59.5943 27.0954 59.5943 24.627V22.0259C58.7449 23.5388 57.0462 24.4412 55.0025 24.4412C51.3131 24.4412 48.9774 21.6012 48.9774 17.9649ZM51.4724 17.9118C51.4724 20.3537 52.9853 22.2648 55.4272 22.2648C57.9487 22.2648 59.4881 20.4599 59.4881 17.9118C59.4881 15.4169 58.0018 13.612 55.4537 13.612C52.9587 13.612 51.4724 15.523 51.4724 17.9118Z" fill="white"/>
<path fill-rule="evenodd" clip-rule="evenodd" d="M17.9721 0C22.8221 0 26.9169 3.23889 28.2183 7.67507C32.7097 8.93856 36.0028 13.0707 36.0028 17.9733C36.0028 22.8577 32.7341 26.9773 28.2683 28.2574C26.9888 32.7281 22.8772 35.9999 18.0026 35.9999C13.1283 35.9999 9.01678 32.7285 7.73707 28.2581C3.26993 26.9789 -2.13193e-07 22.8586 0 17.9733C2.12927e-07 13.094 3.26189 8.97785 7.72059 7.69328C9.01606 3.24775 13.1154 0 17.9721 0Z" fill="#F7CFDB"/>
<path d="M21.1104 14.7289C21.0853 16.7896 17.8492 16.5103 16.8187 16.4976L16.8634 12.851C17.8938 12.8636 21.1363 12.5771 21.1104 14.7289ZM21.8889 20.4101C21.8627 22.6766 17.985 22.3707 16.7456 22.3561L16.8084 18.3394C18.0438 18.3562 21.931 18.0465 21.9015 20.4135L21.8889 20.4101ZM24.5368 13.9578C24.357 11.7916 22.499 11.0471 20.144 10.808L20.181 7.80789L18.3528 7.78422L18.3163 10.7067C17.8383 10.7002 17.3475 10.7039 16.8598 10.7083L16.8798 7.77127L15.0564 7.74214L15.0204 10.7391C14.6237 10.7442 14.235 10.7448 13.8574 10.7416L11.3391 10.7087L11.3158 12.6618C11.3158 12.6618 12.6696 12.6529 12.6391 12.6785C13.1501 12.62 13.6138 12.9817 13.6814 13.4916L13.6503 16.8986C13.7146 16.8993 13.7788 16.9041 13.8424 16.9129L13.6501 16.9121L13.5808 21.6973C13.5508 22.0546 13.2381 22.3208 12.8805 22.2934C12.9089 22.301 11.5541 22.2758 11.5541 22.2758L11.1637 24.4514L13.5412 24.4804L14.8487 24.4929L14.8136 27.5239L16.6387 27.5467L16.6651 24.5607C17.15 24.5792 17.6375 24.5882 18.1227 24.5932L18.0851 27.583L19.9102 27.6058L19.9515 24.5765C23.0292 24.4384 25.1823 23.6911 25.4839 20.8126C25.724 18.4919 24.6531 17.4449 22.9198 17.0041C23.9862 16.4791 24.6638 15.5391 24.5241 13.9545L24.5368 13.9578Z" fill="#DB6A93"/>
</svg>
